<mxfile host="app.diagrams.net" modified="2023-08-23T13:21:44.809Z" agent="Mozilla/5.0 (Macintosh; Intel Mac OS X 10_15_7) AppleWebKit/605.1.15 (KHTML, like Gecko) Version/16.0 Safari/605.1.15" etag="qcFIXzmuhTk50xZFX6ke" version="21.6.8" type="device">
  <diagram id="C5RBs43oDa-KdzZeNtuy" name="Page-1">
    <mxGraphModel dx="1194" dy="675" grid="1" gridSize="10" guides="1" tooltips="1" connect="1" arrows="1" fold="1" page="1" pageScale="1" pageWidth="2336" pageHeight="1654" math="0" shadow="0">
      <root>
        <object label="" id="WIyWlLk6GJQsqaUBKTNV-0">
          <mxCell />
        </object>
        <mxCell id="WIyWlLk6GJQsqaUBKTNV-1" parent="WIyWlLk6GJQsqaUBKTNV-0" />
        <mxCell id="YRed_KIPHT2Aui96E80V-419" style="edgeStyle=orthogonalEdgeStyle;rounded=0;orthogonalLoop=1;jettySize=auto;html=1;exitX=0.5;exitY=1;exitDx=0;exitDy=0;entryX=0.5;entryY=0;entryDx=0;entryDy=0;labelBackgroundColor=none;fontColor=default;" parent="WIyWlLk6GJQsqaUBKTNV-1" source="WIyWlLk6GJQsqaUBKTNV-3" target="YRed_KIPHT2Aui96E80V-404" edge="1">
          <mxGeometry relative="1" as="geometry" />
        </mxCell>
        <mxCell id="WIyWlLk6GJQsqaUBKTNV-3" value="CHATBOT" style="rounded=1;whiteSpace=wrap;html=1;fontSize=12;glass=0;strokeWidth=1;shadow=1;labelBackgroundColor=none;" parent="WIyWlLk6GJQsqaUBKTNV-1" vertex="1">
          <mxGeometry x="1260" y="20" width="120" height="40" as="geometry" />
        </mxCell>
        <mxCell id="PzYOAP8RvENbLpn77y3W-33" style="edgeStyle=orthogonalEdgeStyle;rounded=0;orthogonalLoop=1;jettySize=auto;html=1;exitX=0.5;exitY=1;exitDx=0;exitDy=0;" parent="WIyWlLk6GJQsqaUBKTNV-1" source="YRed_KIPHT2Aui96E80V-404" target="YRed_KIPHT2Aui96E80V-406" edge="1">
          <mxGeometry relative="1" as="geometry" />
        </mxCell>
        <mxCell id="YRed_KIPHT2Aui96E80V-404" value="Mensaje de bienvenida" style="rounded=0;whiteSpace=wrap;html=1;labelBackgroundColor=none;shadow=0;" parent="WIyWlLk6GJQsqaUBKTNV-1" vertex="1">
          <mxGeometry x="1230" y="100" width="180" height="30" as="geometry" />
        </mxCell>
        <mxCell id="YRed_KIPHT2Aui96E80V-411" value="No" style="edgeStyle=orthogonalEdgeStyle;rounded=0;orthogonalLoop=1;jettySize=auto;html=1;exitX=1;exitY=0.5;exitDx=0;exitDy=0;labelPosition=center;verticalLabelPosition=top;align=center;verticalAlign=bottom;textDirection=ltr;entryX=0;entryY=0.5;entryDx=0;entryDy=0;labelBackgroundColor=none;fontColor=default;shadow=0;" parent="WIyWlLk6GJQsqaUBKTNV-1" source="YRed_KIPHT2Aui96E80V-406" target="YRed_KIPHT2Aui96E80V-414" edge="1">
          <mxGeometry relative="1" as="geometry">
            <mxPoint x="1120" y="200" as="targetPoint" />
          </mxGeometry>
        </mxCell>
        <mxCell id="PzYOAP8RvENbLpn77y3W-72" value="Si" style="edgeStyle=orthogonalEdgeStyle;rounded=0;orthogonalLoop=1;jettySize=auto;html=1;exitX=0;exitY=0.5;exitDx=0;exitDy=0;entryX=1;entryY=0.5;entryDx=0;entryDy=0;labelPosition=center;verticalLabelPosition=top;align=center;verticalAlign=bottom;" parent="WIyWlLk6GJQsqaUBKTNV-1" source="YRed_KIPHT2Aui96E80V-406" target="YRed_KIPHT2Aui96E80V-412" edge="1">
          <mxGeometry relative="1" as="geometry" />
        </mxCell>
        <mxCell id="PzYOAP8RvENbLpn77y3W-95" style="edgeStyle=orthogonalEdgeStyle;rounded=0;orthogonalLoop=1;jettySize=auto;html=1;exitX=0.5;exitY=1;exitDx=0;exitDy=0;" parent="WIyWlLk6GJQsqaUBKTNV-1" source="YRed_KIPHT2Aui96E80V-406" target="PzYOAP8RvENbLpn77y3W-46" edge="1">
          <mxGeometry relative="1" as="geometry" />
        </mxCell>
        <mxCell id="YRed_KIPHT2Aui96E80V-406" value="¿Es usted cliente?" style="rhombus;whiteSpace=wrap;html=1;rounded=0;labelBackgroundColor=none;shadow=1;" parent="WIyWlLk6GJQsqaUBKTNV-1" vertex="1">
          <mxGeometry x="1280" y="160" width="80" height="80" as="geometry" />
        </mxCell>
        <mxCell id="YRed_KIPHT2Aui96E80V-420" style="edgeStyle=orthogonalEdgeStyle;rounded=0;orthogonalLoop=1;jettySize=auto;html=1;exitX=0.5;exitY=1;exitDx=0;exitDy=0;labelBackgroundColor=none;fontColor=default;" parent="WIyWlLk6GJQsqaUBKTNV-1" source="YRed_KIPHT2Aui96E80V-412" target="YRed_KIPHT2Aui96E80V-415" edge="1">
          <mxGeometry relative="1" as="geometry" />
        </mxCell>
        <mxCell id="YRed_KIPHT2Aui96E80V-412" value="Camino CLIENTE" style="rounded=1;whiteSpace=wrap;html=1;labelBackgroundColor=none;shadow=1;" parent="WIyWlLk6GJQsqaUBKTNV-1" vertex="1">
          <mxGeometry x="600" y="185" width="120" height="30" as="geometry" />
        </mxCell>
        <mxCell id="PzYOAP8RvENbLpn77y3W-58" style="edgeStyle=orthogonalEdgeStyle;rounded=0;orthogonalLoop=1;jettySize=auto;html=1;exitX=0.5;exitY=1;exitDx=0;exitDy=0;entryX=0.5;entryY=0;entryDx=0;entryDy=0;" parent="WIyWlLk6GJQsqaUBKTNV-1" source="YRed_KIPHT2Aui96E80V-414" target="DYdr8LJS92hogZwub-4w-35" edge="1">
          <mxGeometry relative="1" as="geometry" />
        </mxCell>
        <mxCell id="PzYOAP8RvENbLpn77y3W-59" style="edgeStyle=orthogonalEdgeStyle;rounded=0;orthogonalLoop=1;jettySize=auto;html=1;exitX=0.5;exitY=1;exitDx=0;exitDy=0;entryX=0.5;entryY=0;entryDx=0;entryDy=0;" parent="WIyWlLk6GJQsqaUBKTNV-1" source="YRed_KIPHT2Aui96E80V-414" target="DYdr8LJS92hogZwub-4w-36" edge="1">
          <mxGeometry relative="1" as="geometry" />
        </mxCell>
        <mxCell id="PzYOAP8RvENbLpn77y3W-60" style="edgeStyle=orthogonalEdgeStyle;rounded=0;orthogonalLoop=1;jettySize=auto;html=1;exitX=0.5;exitY=1;exitDx=0;exitDy=0;entryX=0.5;entryY=0;entryDx=0;entryDy=0;" parent="WIyWlLk6GJQsqaUBKTNV-1" source="YRed_KIPHT2Aui96E80V-414" target="DYdr8LJS92hogZwub-4w-37" edge="1">
          <mxGeometry relative="1" as="geometry" />
        </mxCell>
        <mxCell id="PzYOAP8RvENbLpn77y3W-61" style="edgeStyle=orthogonalEdgeStyle;rounded=0;orthogonalLoop=1;jettySize=auto;html=1;exitX=0.5;exitY=1;exitDx=0;exitDy=0;entryX=0.5;entryY=0;entryDx=0;entryDy=0;" parent="WIyWlLk6GJQsqaUBKTNV-1" source="YRed_KIPHT2Aui96E80V-414" target="DYdr8LJS92hogZwub-4w-38" edge="1">
          <mxGeometry relative="1" as="geometry" />
        </mxCell>
        <mxCell id="YRed_KIPHT2Aui96E80V-414" value="Camino NO CLIENTE" style="rounded=1;whiteSpace=wrap;html=1;labelBackgroundColor=none;glass=0;shadow=1;" parent="WIyWlLk6GJQsqaUBKTNV-1" vertex="1">
          <mxGeometry x="1860" y="185" width="120" height="30" as="geometry" />
        </mxCell>
        <mxCell id="PzYOAP8RvENbLpn77y3W-77" style="edgeStyle=orthogonalEdgeStyle;rounded=0;orthogonalLoop=1;jettySize=auto;html=1;exitX=0.5;exitY=1;exitDx=0;exitDy=0;entryX=0.5;entryY=0;entryDx=0;entryDy=0;" parent="WIyWlLk6GJQsqaUBKTNV-1" source="YRed_KIPHT2Aui96E80V-415" target="DYdr8LJS92hogZwub-4w-5" edge="1">
          <mxGeometry relative="1" as="geometry">
            <Array as="points">
              <mxPoint x="660" y="400" />
              <mxPoint x="1120" y="400" />
            </Array>
          </mxGeometry>
        </mxCell>
        <mxCell id="PzYOAP8RvENbLpn77y3W-78" style="edgeStyle=orthogonalEdgeStyle;rounded=0;orthogonalLoop=1;jettySize=auto;html=1;exitX=0.5;exitY=1;exitDx=0;exitDy=0;" parent="WIyWlLk6GJQsqaUBKTNV-1" source="YRed_KIPHT2Aui96E80V-415" target="DYdr8LJS92hogZwub-4w-4" edge="1">
          <mxGeometry relative="1" as="geometry">
            <Array as="points">
              <mxPoint x="660" y="400" />
              <mxPoint x="920" y="400" />
            </Array>
          </mxGeometry>
        </mxCell>
        <mxCell id="PzYOAP8RvENbLpn77y3W-81" style="edgeStyle=orthogonalEdgeStyle;rounded=0;orthogonalLoop=1;jettySize=auto;html=1;exitX=0.5;exitY=1;exitDx=0;exitDy=0;entryX=0.5;entryY=0;entryDx=0;entryDy=0;" parent="WIyWlLk6GJQsqaUBKTNV-1" source="YRed_KIPHT2Aui96E80V-415" target="DYdr8LJS92hogZwub-4w-11" edge="1">
          <mxGeometry relative="1" as="geometry">
            <Array as="points">
              <mxPoint x="520" y="400" />
              <mxPoint x="480" y="400" />
            </Array>
          </mxGeometry>
        </mxCell>
        <mxCell id="PzYOAP8RvENbLpn77y3W-87" style="edgeStyle=orthogonalEdgeStyle;rounded=0;orthogonalLoop=1;jettySize=auto;html=1;exitX=0.5;exitY=1;exitDx=0;exitDy=0;entryX=0.5;entryY=0;entryDx=0;entryDy=0;" parent="WIyWlLk6GJQsqaUBKTNV-1" source="YRed_KIPHT2Aui96E80V-415" target="DYdr8LJS92hogZwub-4w-10" edge="1">
          <mxGeometry relative="1" as="geometry">
            <Array as="points">
              <mxPoint x="660" y="400" />
              <mxPoint x="320" y="400" />
            </Array>
          </mxGeometry>
        </mxCell>
        <mxCell id="YRed_KIPHT2Aui96E80V-415" value="¿Tiene algún problema con su seguro?" style="rhombus;whiteSpace=wrap;html=1;rounded=0;labelBackgroundColor=none;shadow=1;" parent="WIyWlLk6GJQsqaUBKTNV-1" vertex="1">
          <mxGeometry x="605" y="260" width="110" height="100" as="geometry" />
        </mxCell>
        <mxCell id="PzYOAP8RvENbLpn77y3W-76" style="edgeStyle=orthogonalEdgeStyle;rounded=0;orthogonalLoop=1;jettySize=auto;html=1;exitX=0.5;exitY=1;exitDx=0;exitDy=0;" parent="WIyWlLk6GJQsqaUBKTNV-1" source="DYdr8LJS92hogZwub-4w-4" target="PzYOAP8RvENbLpn77y3W-37" edge="1">
          <mxGeometry relative="1" as="geometry" />
        </mxCell>
        <mxCell id="DYdr8LJS92hogZwub-4w-4" value="Siniestros" style="rounded=0;whiteSpace=wrap;html=1;" parent="WIyWlLk6GJQsqaUBKTNV-1" vertex="1">
          <mxGeometry x="880" y="480" width="80" height="40" as="geometry" />
        </mxCell>
        <mxCell id="PzYOAP8RvENbLpn77y3W-75" style="edgeStyle=orthogonalEdgeStyle;rounded=0;orthogonalLoop=1;jettySize=auto;html=1;exitX=0.5;exitY=1;exitDx=0;exitDy=0;entryX=0.5;entryY=0;entryDx=0;entryDy=0;" parent="WIyWlLk6GJQsqaUBKTNV-1" source="DYdr8LJS92hogZwub-4w-5" target="PzYOAP8RvENbLpn77y3W-35" edge="1">
          <mxGeometry relative="1" as="geometry" />
        </mxCell>
        <mxCell id="DYdr8LJS92hogZwub-4w-5" value="Otros" style="rounded=0;whiteSpace=wrap;html=1;" parent="WIyWlLk6GJQsqaUBKTNV-1" vertex="1">
          <mxGeometry x="1080" y="480" width="80" height="40" as="geometry" />
        </mxCell>
        <mxCell id="PzYOAP8RvENbLpn77y3W-88" style="edgeStyle=orthogonalEdgeStyle;rounded=0;orthogonalLoop=1;jettySize=auto;html=1;exitX=0.5;exitY=1;exitDx=0;exitDy=0;entryX=0.5;entryY=0;entryDx=0;entryDy=0;" parent="WIyWlLk6GJQsqaUBKTNV-1" source="DYdr8LJS92hogZwub-4w-10" target="PzYOAP8RvENbLpn77y3W-86" edge="1">
          <mxGeometry relative="1" as="geometry" />
        </mxCell>
        <mxCell id="DYdr8LJS92hogZwub-4w-10" value="Gestión de Pólizas" style="rhombus;whiteSpace=wrap;html=1;" parent="WIyWlLk6GJQsqaUBKTNV-1" vertex="1">
          <mxGeometry x="280" y="440" width="80" height="80" as="geometry" />
        </mxCell>
        <mxCell id="PzYOAP8RvENbLpn77y3W-94" style="edgeStyle=orthogonalEdgeStyle;rounded=0;orthogonalLoop=1;jettySize=auto;html=1;exitX=0.5;exitY=1;exitDx=0;exitDy=0;entryX=0.5;entryY=0;entryDx=0;entryDy=0;" parent="WIyWlLk6GJQsqaUBKTNV-1" source="DYdr8LJS92hogZwub-4w-11" target="PzYOAP8RvENbLpn77y3W-53" edge="1">
          <mxGeometry relative="1" as="geometry" />
        </mxCell>
        <mxCell id="DYdr8LJS92hogZwub-4w-11" value="Renovación" style="rhombus;whiteSpace=wrap;html=1;" parent="WIyWlLk6GJQsqaUBKTNV-1" vertex="1">
          <mxGeometry x="660" y="440" width="80" height="80" as="geometry" />
        </mxCell>
        <mxCell id="PzYOAP8RvENbLpn77y3W-102" style="edgeStyle=orthogonalEdgeStyle;rounded=0;orthogonalLoop=1;jettySize=auto;html=1;exitX=0.5;exitY=1;exitDx=0;exitDy=0;entryX=0.5;entryY=0;entryDx=0;entryDy=0;" parent="WIyWlLk6GJQsqaUBKTNV-1" source="DYdr8LJS92hogZwub-4w-14" target="PzYOAP8RvENbLpn77y3W-41" edge="1">
          <mxGeometry relative="1" as="geometry">
            <Array as="points">
              <mxPoint x="390" y="960" />
              <mxPoint x="700" y="960" />
            </Array>
          </mxGeometry>
        </mxCell>
        <mxCell id="DYdr8LJS92hogZwub-4w-14" value="Listado de coberturas que puede ampliar" style="rounded=0;whiteSpace=wrap;html=1;" parent="WIyWlLk6GJQsqaUBKTNV-1" vertex="1">
          <mxGeometry x="330" y="640" width="120" height="40" as="geometry" />
        </mxCell>
        <mxCell id="PzYOAP8RvENbLpn77y3W-101" style="edgeStyle=orthogonalEdgeStyle;rounded=0;orthogonalLoop=1;jettySize=auto;html=1;exitX=0.5;exitY=1;exitDx=0;exitDy=0;entryX=0.5;entryY=0;entryDx=0;entryDy=0;" parent="WIyWlLk6GJQsqaUBKTNV-1" source="DYdr8LJS92hogZwub-4w-15" target="PzYOAP8RvENbLpn77y3W-41" edge="1">
          <mxGeometry relative="1" as="geometry">
            <Array as="points">
              <mxPoint x="530" y="960" />
              <mxPoint x="700" y="960" />
            </Array>
          </mxGeometry>
        </mxCell>
        <mxCell id="DYdr8LJS92hogZwub-4w-15" value="Proporcione el número de póliza y s procesará la solicitud de baja" style="rounded=0;whiteSpace=wrap;html=1;" parent="WIyWlLk6GJQsqaUBKTNV-1" vertex="1">
          <mxGeometry x="470" y="640" width="120" height="80" as="geometry" />
        </mxCell>
        <mxCell id="PzYOAP8RvENbLpn77y3W-104" style="edgeStyle=orthogonalEdgeStyle;rounded=0;orthogonalLoop=1;jettySize=auto;html=1;exitX=0.5;exitY=1;exitDx=0;exitDy=0;entryX=0.5;entryY=0;entryDx=0;entryDy=0;" parent="WIyWlLk6GJQsqaUBKTNV-1" source="DYdr8LJS92hogZwub-4w-16" target="PzYOAP8RvENbLpn77y3W-41" edge="1">
          <mxGeometry relative="1" as="geometry">
            <Array as="points">
              <mxPoint x="85" y="960" />
              <mxPoint x="700" y="960" />
            </Array>
          </mxGeometry>
        </mxCell>
        <mxCell id="DYdr8LJS92hogZwub-4w-16" value="Información General" style="swimlane;fontStyle=0;childLayout=stackLayout;horizontal=1;startSize=30;horizontalStack=0;resizeParent=1;resizeParentMax=0;resizeLast=0;collapsible=1;marginBottom=0;whiteSpace=wrap;html=1;" parent="WIyWlLk6GJQsqaUBKTNV-1" vertex="1">
          <mxGeometry x="10" y="640" width="140" height="240" as="geometry">
            <mxRectangle x="10" y="640" width="150" height="30" as="alternateBounds" />
          </mxGeometry>
        </mxCell>
        <mxCell id="DYdr8LJS92hogZwub-4w-17" value="Tomador:" style="text;strokeColor=none;fillColor=none;align=left;verticalAlign=middle;spacingLeft=4;spacingRight=4;overflow=hidden;points=[[0,0.5],[1,0.5]];portConstraint=eastwest;rotatable=0;whiteSpace=wrap;html=1;" parent="DYdr8LJS92hogZwub-4w-16" vertex="1">
          <mxGeometry y="30" width="140" height="30" as="geometry" />
        </mxCell>
        <mxCell id="DYdr8LJS92hogZwub-4w-18" value="Asegurado:" style="text;strokeColor=none;fillColor=none;align=left;verticalAlign=middle;spacingLeft=4;spacingRight=4;overflow=hidden;points=[[0,0.5],[1,0.5]];portConstraint=eastwest;rotatable=0;whiteSpace=wrap;html=1;" parent="DYdr8LJS92hogZwub-4w-16" vertex="1">
          <mxGeometry y="60" width="140" height="30" as="geometry" />
        </mxCell>
        <mxCell id="DYdr8LJS92hogZwub-4w-19" value="Número de póliza:" style="text;strokeColor=none;fillColor=none;align=left;verticalAlign=middle;spacingLeft=4;spacingRight=4;overflow=hidden;points=[[0,0.5],[1,0.5]];portConstraint=eastwest;rotatable=0;whiteSpace=wrap;html=1;" parent="DYdr8LJS92hogZwub-4w-16" vertex="1">
          <mxGeometry y="90" width="140" height="30" as="geometry" />
        </mxCell>
        <mxCell id="DYdr8LJS92hogZwub-4w-20" value="Fecha de efecto:" style="text;strokeColor=none;fillColor=none;align=left;verticalAlign=middle;spacingLeft=4;spacingRight=4;overflow=hidden;points=[[0,0.5],[1,0.5]];portConstraint=eastwest;rotatable=0;whiteSpace=wrap;html=1;" parent="DYdr8LJS92hogZwub-4w-16" vertex="1">
          <mxGeometry y="120" width="140" height="30" as="geometry" />
        </mxCell>
        <mxCell id="DYdr8LJS92hogZwub-4w-21" value="Fecha de vencimiento:" style="text;strokeColor=none;fillColor=none;align=left;verticalAlign=middle;spacingLeft=4;spacingRight=4;overflow=hidden;points=[[0,0.5],[1,0.5]];portConstraint=eastwest;rotatable=0;whiteSpace=wrap;html=1;" parent="DYdr8LJS92hogZwub-4w-16" vertex="1">
          <mxGeometry y="150" width="140" height="30" as="geometry" />
        </mxCell>
        <mxCell id="DYdr8LJS92hogZwub-4w-22" value="Coberturas y límites:" style="text;strokeColor=none;fillColor=none;align=left;verticalAlign=middle;spacingLeft=4;spacingRight=4;overflow=hidden;points=[[0,0.5],[1,0.5]];portConstraint=eastwest;rotatable=0;whiteSpace=wrap;html=1;" parent="DYdr8LJS92hogZwub-4w-16" vertex="1">
          <mxGeometry y="180" width="140" height="30" as="geometry" />
        </mxCell>
        <mxCell id="DYdr8LJS92hogZwub-4w-23" value="Prima:" style="text;strokeColor=none;fillColor=none;align=left;verticalAlign=middle;spacingLeft=4;spacingRight=4;overflow=hidden;points=[[0,0.5],[1,0.5]];portConstraint=eastwest;rotatable=0;whiteSpace=wrap;html=1;" parent="DYdr8LJS92hogZwub-4w-16" vertex="1">
          <mxGeometry y="210" width="140" height="30" as="geometry" />
        </mxCell>
        <mxCell id="PzYOAP8RvENbLpn77y3W-103" style="edgeStyle=orthogonalEdgeStyle;rounded=0;orthogonalLoop=1;jettySize=auto;html=1;exitX=0.5;exitY=1;exitDx=0;exitDy=0;entryX=0.5;entryY=0;entryDx=0;entryDy=0;" parent="WIyWlLk6GJQsqaUBKTNV-1" source="DYdr8LJS92hogZwub-4w-26" target="PzYOAP8RvENbLpn77y3W-41" edge="1">
          <mxGeometry relative="1" as="geometry">
            <Array as="points">
              <mxPoint x="245" y="960" />
              <mxPoint x="700" y="960" />
            </Array>
          </mxGeometry>
        </mxCell>
        <mxCell id="DYdr8LJS92hogZwub-4w-26" value="Estado de los pagos&amp;nbsp;" style="swimlane;fontStyle=0;childLayout=stackLayout;horizontal=1;startSize=30;horizontalStack=0;resizeParent=1;resizeParentMax=0;resizeLast=0;collapsible=1;marginBottom=0;whiteSpace=wrap;html=1;" parent="WIyWlLk6GJQsqaUBKTNV-1" vertex="1">
          <mxGeometry x="170" y="640" width="140" height="210" as="geometry">
            <mxRectangle x="170" y="640" width="150" height="30" as="alternateBounds" />
          </mxGeometry>
        </mxCell>
        <mxCell id="DYdr8LJS92hogZwub-4w-27" value="Número de recibo:" style="text;strokeColor=none;fillColor=none;align=left;verticalAlign=middle;spacingLeft=4;spacingRight=4;overflow=hidden;points=[[0,0.5],[1,0.5]];portConstraint=eastwest;rotatable=0;whiteSpace=wrap;html=1;" parent="DYdr8LJS92hogZwub-4w-26" vertex="1">
          <mxGeometry y="30" width="140" height="30" as="geometry" />
        </mxCell>
        <mxCell id="DYdr8LJS92hogZwub-4w-28" value="Fecha de pago:" style="text;strokeColor=none;fillColor=none;align=left;verticalAlign=middle;spacingLeft=4;spacingRight=4;overflow=hidden;points=[[0,0.5],[1,0.5]];portConstraint=eastwest;rotatable=0;whiteSpace=wrap;html=1;" parent="DYdr8LJS92hogZwub-4w-26" vertex="1">
          <mxGeometry y="60" width="140" height="30" as="geometry" />
        </mxCell>
        <mxCell id="DYdr8LJS92hogZwub-4w-29" value="Cuantía:&amp;nbsp;" style="text;strokeColor=none;fillColor=none;align=left;verticalAlign=middle;spacingLeft=4;spacingRight=4;overflow=hidden;points=[[0,0.5],[1,0.5]];portConstraint=eastwest;rotatable=0;whiteSpace=wrap;html=1;" parent="DYdr8LJS92hogZwub-4w-26" vertex="1">
          <mxGeometry y="90" width="140" height="30" as="geometry" />
        </mxCell>
        <mxCell id="DYdr8LJS92hogZwub-4w-30" value="Método de pago:" style="text;strokeColor=none;fillColor=none;align=left;verticalAlign=middle;spacingLeft=4;spacingRight=4;overflow=hidden;points=[[0,0.5],[1,0.5]];portConstraint=eastwest;rotatable=0;whiteSpace=wrap;html=1;" parent="DYdr8LJS92hogZwub-4w-26" vertex="1">
          <mxGeometry y="120" width="140" height="30" as="geometry" />
        </mxCell>
        <mxCell id="DYdr8LJS92hogZwub-4w-31" value="Estado del pago:" style="text;strokeColor=none;fillColor=none;align=left;verticalAlign=middle;spacingLeft=4;spacingRight=4;overflow=hidden;points=[[0,0.5],[1,0.5]];portConstraint=eastwest;rotatable=0;whiteSpace=wrap;html=1;" parent="DYdr8LJS92hogZwub-4w-26" vertex="1">
          <mxGeometry y="150" width="140" height="30" as="geometry" />
        </mxCell>
        <mxCell id="DYdr8LJS92hogZwub-4w-32" value="Próximo pago:" style="text;strokeColor=none;fillColor=none;align=left;verticalAlign=middle;spacingLeft=4;spacingRight=4;overflow=hidden;points=[[0,0.5],[1,0.5]];portConstraint=eastwest;rotatable=0;whiteSpace=wrap;html=1;" parent="DYdr8LJS92hogZwub-4w-26" vertex="1">
          <mxGeometry y="180" width="140" height="30" as="geometry" />
        </mxCell>
        <mxCell id="DYdr8LJS92hogZwub-4w-45" style="edgeStyle=orthogonalEdgeStyle;rounded=0;orthogonalLoop=1;jettySize=auto;html=1;exitX=0.5;exitY=1;exitDx=0;exitDy=0;entryX=0.5;entryY=0;entryDx=0;entryDy=0;" parent="WIyWlLk6GJQsqaUBKTNV-1" source="DYdr8LJS92hogZwub-4w-35" target="DYdr8LJS92hogZwub-4w-44" edge="1">
          <mxGeometry relative="1" as="geometry" />
        </mxCell>
        <mxCell id="DYdr8LJS92hogZwub-4w-35" value="Pólizas disponibles" style="rounded=0;whiteSpace=wrap;html=1;shadow=0;" parent="WIyWlLk6GJQsqaUBKTNV-1" vertex="1">
          <mxGeometry x="1560" y="280" width="120" height="40" as="geometry" />
        </mxCell>
        <mxCell id="DYdr8LJS92hogZwub-4w-48" style="edgeStyle=orthogonalEdgeStyle;rounded=0;orthogonalLoop=1;jettySize=auto;html=1;exitX=0.5;exitY=1;exitDx=0;exitDy=0;entryX=0.5;entryY=0;entryDx=0;entryDy=0;" parent="WIyWlLk6GJQsqaUBKTNV-1" source="DYdr8LJS92hogZwub-4w-36" target="DYdr8LJS92hogZwub-4w-44" edge="1">
          <mxGeometry relative="1" as="geometry" />
        </mxCell>
        <mxCell id="DYdr8LJS92hogZwub-4w-36" value="Documentación necesaria" style="rounded=0;whiteSpace=wrap;html=1;shadow=0;" parent="WIyWlLk6GJQsqaUBKTNV-1" vertex="1">
          <mxGeometry x="1760" y="280" width="120" height="40" as="geometry" />
        </mxCell>
        <mxCell id="PzYOAP8RvENbLpn77y3W-34" style="edgeStyle=orthogonalEdgeStyle;rounded=0;orthogonalLoop=1;jettySize=auto;html=1;exitX=0.5;exitY=1;exitDx=0;exitDy=0;entryX=0.5;entryY=0;entryDx=0;entryDy=0;" parent="WIyWlLk6GJQsqaUBKTNV-1" source="DYdr8LJS92hogZwub-4w-37" target="DYdr8LJS92hogZwub-4w-44" edge="1">
          <mxGeometry relative="1" as="geometry" />
        </mxCell>
        <mxCell id="DYdr8LJS92hogZwub-4w-37" value="Coberturas y exclusiones" style="rounded=0;whiteSpace=wrap;html=1;shadow=0;" parent="WIyWlLk6GJQsqaUBKTNV-1" vertex="1">
          <mxGeometry x="1960" y="280" width="120" height="40" as="geometry" />
        </mxCell>
        <mxCell id="DYdr8LJS92hogZwub-4w-46" style="edgeStyle=orthogonalEdgeStyle;rounded=0;orthogonalLoop=1;jettySize=auto;html=1;exitX=0.5;exitY=1;exitDx=0;exitDy=0;entryX=0.5;entryY=0;entryDx=0;entryDy=0;" parent="WIyWlLk6GJQsqaUBKTNV-1" source="DYdr8LJS92hogZwub-4w-38" target="DYdr8LJS92hogZwub-4w-44" edge="1">
          <mxGeometry relative="1" as="geometry" />
        </mxCell>
        <mxCell id="DYdr8LJS92hogZwub-4w-38" value="Permanencia, bonificaciones y descuentos" style="rounded=0;whiteSpace=wrap;html=1;shadow=0;" parent="WIyWlLk6GJQsqaUBKTNV-1" vertex="1">
          <mxGeometry x="2160" y="280" width="120" height="40" as="geometry" />
        </mxCell>
        <mxCell id="PzYOAP8RvENbLpn77y3W-5" style="edgeStyle=orthogonalEdgeStyle;rounded=0;orthogonalLoop=1;jettySize=auto;html=1;exitX=0.5;exitY=1;exitDx=0;exitDy=0;entryX=0.5;entryY=0;entryDx=0;entryDy=0;" parent="WIyWlLk6GJQsqaUBKTNV-1" source="DYdr8LJS92hogZwub-4w-44" target="PzYOAP8RvENbLpn77y3W-0" edge="1">
          <mxGeometry relative="1" as="geometry" />
        </mxCell>
        <mxCell id="PzYOAP8RvENbLpn77y3W-63" style="edgeStyle=orthogonalEdgeStyle;rounded=0;orthogonalLoop=1;jettySize=auto;html=1;exitX=0.5;exitY=1;exitDx=0;exitDy=0;entryX=0.5;entryY=0;entryDx=0;entryDy=0;" parent="WIyWlLk6GJQsqaUBKTNV-1" source="DYdr8LJS92hogZwub-4w-44" target="PzYOAP8RvENbLpn77y3W-14" edge="1">
          <mxGeometry relative="1" as="geometry" />
        </mxCell>
        <mxCell id="PzYOAP8RvENbLpn77y3W-64" style="edgeStyle=orthogonalEdgeStyle;rounded=0;orthogonalLoop=1;jettySize=auto;html=1;exitX=0.5;exitY=1;exitDx=0;exitDy=0;" parent="WIyWlLk6GJQsqaUBKTNV-1" source="DYdr8LJS92hogZwub-4w-44" target="PzYOAP8RvENbLpn77y3W-2" edge="1">
          <mxGeometry relative="1" as="geometry" />
        </mxCell>
        <mxCell id="PzYOAP8RvENbLpn77y3W-65" style="edgeStyle=orthogonalEdgeStyle;rounded=0;orthogonalLoop=1;jettySize=auto;html=1;exitX=0.5;exitY=1;exitDx=0;exitDy=0;" parent="WIyWlLk6GJQsqaUBKTNV-1" source="DYdr8LJS92hogZwub-4w-44" target="PzYOAP8RvENbLpn77y3W-26" edge="1">
          <mxGeometry relative="1" as="geometry" />
        </mxCell>
        <mxCell id="DYdr8LJS92hogZwub-4w-44" value="Elija una opción:&lt;br&gt;1. Seguro de vida &amp;nbsp;2. Seguro de Autos &amp;nbsp;3. Seguro de hogar &amp;nbsp;4. Seguro de Responsabilidad Civil" style="rounded=0;whiteSpace=wrap;html=1;shadow=0;" parent="WIyWlLk6GJQsqaUBKTNV-1" vertex="1">
          <mxGeometry x="1660" y="360" width="520" height="40" as="geometry" />
        </mxCell>
        <mxCell id="PzYOAP8RvENbLpn77y3W-25" style="edgeStyle=orthogonalEdgeStyle;rounded=0;orthogonalLoop=1;jettySize=auto;html=1;exitX=0.5;exitY=1;exitDx=0;exitDy=0;entryX=0.5;entryY=0;entryDx=0;entryDy=0;" parent="WIyWlLk6GJQsqaUBKTNV-1" source="PzYOAP8RvENbLpn77y3W-2" target="PzYOAP8RvENbLpn77y3W-3" edge="1">
          <mxGeometry relative="1" as="geometry" />
        </mxCell>
        <mxCell id="PzYOAP8RvENbLpn77y3W-2" value="Listado de coberturas y exclusiones" style="rounded=0;whiteSpace=wrap;html=1;" parent="WIyWlLk6GJQsqaUBKTNV-1" vertex="1">
          <mxGeometry x="1960" y="480" width="120" height="40" as="geometry" />
        </mxCell>
        <mxCell id="PzYOAP8RvENbLpn77y3W-8" value="No" style="edgeStyle=orthogonalEdgeStyle;rounded=0;orthogonalLoop=1;jettySize=auto;html=1;exitX=0.5;exitY=1;exitDx=0;exitDy=0;entryX=1;entryY=0.5;entryDx=0;entryDy=0;labelPosition=right;verticalLabelPosition=middle;align=left;verticalAlign=middle;" parent="WIyWlLk6GJQsqaUBKTNV-1" source="PzYOAP8RvENbLpn77y3W-3" target="PzYOAP8RvENbLpn77y3W-7" edge="1">
          <mxGeometry relative="1" as="geometry" />
        </mxCell>
        <mxCell id="PzYOAP8RvENbLpn77y3W-67" value="Si" style="edgeStyle=orthogonalEdgeStyle;rounded=0;orthogonalLoop=1;jettySize=auto;html=1;exitX=1;exitY=0.5;exitDx=0;exitDy=0;entryX=1;entryY=0.5;entryDx=0;entryDy=0;labelPosition=right;verticalLabelPosition=middle;align=left;verticalAlign=middle;" parent="WIyWlLk6GJQsqaUBKTNV-1" source="PzYOAP8RvENbLpn77y3W-3" target="PzYOAP8RvENbLpn77y3W-2" edge="1">
          <mxGeometry relative="1" as="geometry">
            <Array as="points">
              <mxPoint x="2110" y="630" />
              <mxPoint x="2110" y="500" />
            </Array>
          </mxGeometry>
        </mxCell>
        <mxCell id="PzYOAP8RvENbLpn77y3W-3" value="&lt;font style=&quot;font-size: 12px;&quot;&gt;Más detalles sobre coberturas y exclusiones&lt;/font&gt;" style="rhombus;whiteSpace=wrap;html=1;shadow=1;" parent="WIyWlLk6GJQsqaUBKTNV-1" vertex="1">
          <mxGeometry x="1970" y="580" width="100" height="100" as="geometry" />
        </mxCell>
        <mxCell id="PzYOAP8RvENbLpn77y3W-11" value="Si" style="edgeStyle=orthogonalEdgeStyle;rounded=0;orthogonalLoop=1;jettySize=auto;html=1;exitX=0;exitY=0.5;exitDx=0;exitDy=0;entryX=0;entryY=0.5;entryDx=0;entryDy=0;labelPosition=left;verticalLabelPosition=middle;align=right;verticalAlign=middle;" parent="WIyWlLk6GJQsqaUBKTNV-1" source="PzYOAP8RvENbLpn77y3W-7" target="DYdr8LJS92hogZwub-4w-44" edge="1">
          <mxGeometry relative="1" as="geometry">
            <Array as="points">
              <mxPoint x="1480" y="895" />
              <mxPoint x="1480" y="380" />
            </Array>
          </mxGeometry>
        </mxCell>
        <mxCell id="PzYOAP8RvENbLpn77y3W-12" value="No" style="edgeStyle=orthogonalEdgeStyle;rounded=0;orthogonalLoop=1;jettySize=auto;html=1;exitX=0.5;exitY=1;exitDx=0;exitDy=0;entryX=1;entryY=0.5;entryDx=0;entryDy=0;labelPosition=center;verticalLabelPosition=top;align=center;verticalAlign=bottom;" parent="WIyWlLk6GJQsqaUBKTNV-1" source="PzYOAP8RvENbLpn77y3W-7" target="PzYOAP8RvENbLpn77y3W-46" edge="1">
          <mxGeometry relative="1" as="geometry">
            <mxPoint x="880" y="910" as="targetPoint" />
          </mxGeometry>
        </mxCell>
        <mxCell id="PzYOAP8RvENbLpn77y3W-7" value="¿Desea más información?" style="rhombus;whiteSpace=wrap;html=1;shadow=1;" parent="WIyWlLk6GJQsqaUBKTNV-1" vertex="1">
          <mxGeometry x="1775" y="850" width="90" height="90" as="geometry" />
        </mxCell>
        <mxCell id="PzYOAP8RvENbLpn77y3W-66" style="edgeStyle=orthogonalEdgeStyle;rounded=0;orthogonalLoop=1;jettySize=auto;html=1;exitX=0.5;exitY=1;exitDx=0;exitDy=0;entryX=0.5;entryY=0;entryDx=0;entryDy=0;" parent="WIyWlLk6GJQsqaUBKTNV-1" source="PzYOAP8RvENbLpn77y3W-26" target="PzYOAP8RvENbLpn77y3W-7" edge="1">
          <mxGeometry relative="1" as="geometry">
            <Array as="points">
              <mxPoint x="2220" y="760" />
              <mxPoint x="1820" y="760" />
            </Array>
          </mxGeometry>
        </mxCell>
        <mxCell id="PzYOAP8RvENbLpn77y3W-26" value="Permanencia, bonificaciones y descuentos" style="swimlane;fontStyle=0;childLayout=stackLayout;horizontal=1;startSize=45;horizontalStack=0;resizeParent=1;resizeParentMax=0;resizeLast=0;collapsible=1;marginBottom=0;whiteSpace=wrap;html=1;shadow=0;swimlaneLine=1;" parent="WIyWlLk6GJQsqaUBKTNV-1" vertex="1">
          <mxGeometry x="2145" y="480" width="150" height="205" as="geometry">
            <mxRectangle x="2020" y="480" width="160" height="40" as="alternateBounds" />
          </mxGeometry>
        </mxCell>
        <mxCell id="PzYOAP8RvENbLpn77y3W-27" value="Todas las pólizas tienen permanencia de 1 año." style="text;strokeColor=none;fillColor=none;align=left;verticalAlign=middle;spacingLeft=4;spacingRight=4;overflow=hidden;points=[[0,0.5],[1,0.5]];portConstraint=eastwest;rotatable=0;whiteSpace=wrap;html=1;" parent="PzYOAP8RvENbLpn77y3W-26" vertex="1">
          <mxGeometry y="45" width="150" height="40" as="geometry" />
        </mxCell>
        <mxCell id="PzYOAP8RvENbLpn77y3W-28" value="Bonificaciones por no siniestralidad, por antigüedad, por pólizas múltiples..." style="text;strokeColor=none;fillColor=none;align=left;verticalAlign=middle;spacingLeft=4;spacingRight=4;overflow=hidden;points=[[0,0.5],[1,0.5]];portConstraint=eastwest;rotatable=0;whiteSpace=wrap;html=1;" parent="PzYOAP8RvENbLpn77y3W-26" vertex="1">
          <mxGeometry y="85" width="150" height="60" as="geometry" />
        </mxCell>
        <mxCell id="PzYOAP8RvENbLpn77y3W-29" value="Descuentos por sistemas de seguridad, por pago anual, por conducción segura..." style="text;strokeColor=none;fillColor=none;align=left;verticalAlign=middle;spacingLeft=4;spacingRight=4;overflow=hidden;points=[[0,0.5],[1,0.5]];portConstraint=eastwest;rotatable=0;whiteSpace=wrap;html=1;" parent="PzYOAP8RvENbLpn77y3W-26" vertex="1">
          <mxGeometry y="145" width="150" height="60" as="geometry" />
        </mxCell>
        <mxCell id="PzYOAP8RvENbLpn77y3W-98" style="edgeStyle=orthogonalEdgeStyle;rounded=0;orthogonalLoop=1;jettySize=auto;html=1;exitX=0.5;exitY=1;exitDx=0;exitDy=0;" parent="WIyWlLk6GJQsqaUBKTNV-1" source="PzYOAP8RvENbLpn77y3W-35" target="PzYOAP8RvENbLpn77y3W-41" edge="1">
          <mxGeometry relative="1" as="geometry">
            <Array as="points">
              <mxPoint x="1120" y="960" />
              <mxPoint x="700" y="960" />
            </Array>
          </mxGeometry>
        </mxCell>
        <mxCell id="PzYOAP8RvENbLpn77y3W-35" value="Por favor, exponga brevemente su problema..." style="rounded=0;whiteSpace=wrap;html=1;" parent="WIyWlLk6GJQsqaUBKTNV-1" vertex="1">
          <mxGeometry x="1040" y="560" width="160" height="40" as="geometry" />
        </mxCell>
        <mxCell id="PzYOAP8RvENbLpn77y3W-99" style="edgeStyle=orthogonalEdgeStyle;rounded=0;orthogonalLoop=1;jettySize=auto;html=1;exitX=0.5;exitY=1;exitDx=0;exitDy=0;" parent="WIyWlLk6GJQsqaUBKTNV-1" source="PzYOAP8RvENbLpn77y3W-37" target="PzYOAP8RvENbLpn77y3W-41" edge="1">
          <mxGeometry relative="1" as="geometry">
            <Array as="points">
              <mxPoint x="920" y="960" />
              <mxPoint x="700" y="960" />
            </Array>
          </mxGeometry>
        </mxCell>
        <mxCell id="PzYOAP8RvENbLpn77y3W-37" value="Proporcione su número de póliza y detalle brevemente el siniestro" style="rounded=0;whiteSpace=wrap;html=1;" parent="WIyWlLk6GJQsqaUBKTNV-1" vertex="1">
          <mxGeometry x="840" y="560" width="160" height="40" as="geometry" />
        </mxCell>
        <mxCell id="PzYOAP8RvENbLpn77y3W-47" value="Si" style="edgeStyle=orthogonalEdgeStyle;rounded=0;orthogonalLoop=1;jettySize=auto;html=1;exitX=1;exitY=0.5;exitDx=0;exitDy=0;entryX=1;entryY=0.5;entryDx=0;entryDy=0;labelPosition=right;verticalLabelPosition=middle;align=left;verticalAlign=middle;" parent="WIyWlLk6GJQsqaUBKTNV-1" source="PzYOAP8RvENbLpn77y3W-41" target="YRed_KIPHT2Aui96E80V-415" edge="1">
          <mxGeometry x="-0.2657" relative="1" as="geometry">
            <Array as="points">
              <mxPoint x="1240" y="1055" />
              <mxPoint x="1240" y="310" />
            </Array>
            <mxPoint as="offset" />
          </mxGeometry>
        </mxCell>
        <mxCell id="PzYOAP8RvENbLpn77y3W-48" value="No" style="edgeStyle=orthogonalEdgeStyle;rounded=0;orthogonalLoop=1;jettySize=auto;html=1;exitX=0.5;exitY=1;exitDx=0;exitDy=0;entryX=0;entryY=0.5;entryDx=0;entryDy=0;labelPosition=center;verticalLabelPosition=top;align=center;verticalAlign=bottom;" parent="WIyWlLk6GJQsqaUBKTNV-1" source="PzYOAP8RvENbLpn77y3W-41" target="PzYOAP8RvENbLpn77y3W-46" edge="1">
          <mxGeometry relative="1" as="geometry" />
        </mxCell>
        <mxCell id="PzYOAP8RvENbLpn77y3W-41" value="¿Tiene alguna otra pregunta sobre su seguro?" style="rhombus;whiteSpace=wrap;html=1;shadow=1;" parent="WIyWlLk6GJQsqaUBKTNV-1" vertex="1">
          <mxGeometry x="645" y="1000" width="110" height="110" as="geometry" />
        </mxCell>
        <mxCell id="PzYOAP8RvENbLpn77y3W-52" value="No" style="edgeStyle=orthogonalEdgeStyle;rounded=0;orthogonalLoop=1;jettySize=auto;html=1;exitX=0.5;exitY=1;exitDx=0;exitDy=0;entryX=0.5;entryY=0;entryDx=0;entryDy=0;align=left;labelPosition=right;verticalLabelPosition=middle;verticalAlign=middle;" parent="WIyWlLk6GJQsqaUBKTNV-1" source="PzYOAP8RvENbLpn77y3W-46" target="PzYOAP8RvENbLpn77y3W-51" edge="1">
          <mxGeometry relative="1" as="geometry" />
        </mxCell>
        <mxCell id="PzYOAP8RvENbLpn77y3W-46" value="¿Desea realizar otra consulta?" style="rhombus;whiteSpace=wrap;html=1;shadow=1;" parent="WIyWlLk6GJQsqaUBKTNV-1" vertex="1">
          <mxGeometry x="1265" y="1210" width="110" height="100" as="geometry" />
        </mxCell>
        <mxCell id="PzYOAP8RvENbLpn77y3W-51" value="Mensaje de despedida" style="rounded=0;whiteSpace=wrap;html=1;" parent="WIyWlLk6GJQsqaUBKTNV-1" vertex="1">
          <mxGeometry x="1245" y="1410" width="150" height="40" as="geometry" />
        </mxCell>
        <mxCell id="PzYOAP8RvENbLpn77y3W-83" style="edgeStyle=orthogonalEdgeStyle;rounded=0;orthogonalLoop=1;jettySize=auto;html=1;exitX=0.5;exitY=1;exitDx=0;exitDy=0;entryX=0.5;entryY=0;entryDx=0;entryDy=0;" parent="WIyWlLk6GJQsqaUBKTNV-1" source="PzYOAP8RvENbLpn77y3W-53" target="PzYOAP8RvENbLpn77y3W-82" edge="1">
          <mxGeometry relative="1" as="geometry" />
        </mxCell>
        <mxCell id="PzYOAP8RvENbLpn77y3W-53" value="Elija una opción:&lt;br&gt;1. Seguro de vida &amp;nbsp;2. Seguro de Autos&amp;nbsp;&lt;br&gt;3. Seguro de hogar &amp;nbsp;&lt;br&gt;4. Seguro de Responsabilidad Civil" style="rounded=0;whiteSpace=wrap;html=1;shadow=0;" parent="WIyWlLk6GJQsqaUBKTNV-1" vertex="1">
          <mxGeometry x="590" y="560" width="220" height="60" as="geometry" />
        </mxCell>
        <mxCell id="PzYOAP8RvENbLpn77y3W-68" style="edgeStyle=orthogonalEdgeStyle;rounded=0;orthogonalLoop=1;jettySize=auto;html=1;exitX=0.5;exitY=1;exitDx=0;exitDy=0;entryX=0.5;entryY=0;entryDx=0;entryDy=0;" parent="WIyWlLk6GJQsqaUBKTNV-1" source="PzYOAP8RvENbLpn77y3W-14" target="PzYOAP8RvENbLpn77y3W-7" edge="1">
          <mxGeometry relative="1" as="geometry">
            <Array as="points">
              <mxPoint x="1820" y="800" />
              <mxPoint x="1820" y="800" />
            </Array>
          </mxGeometry>
        </mxCell>
        <mxCell id="PzYOAP8RvENbLpn77y3W-14" value="Documentación necesaria" style="swimlane;fontStyle=0;childLayout=stackLayout;horizontal=1;startSize=40;horizontalStack=0;resizeParent=1;resizeParentMax=0;resizeLast=0;collapsible=1;marginBottom=0;whiteSpace=wrap;html=1;" parent="WIyWlLk6GJQsqaUBKTNV-1" vertex="1">
          <mxGeometry x="1740" y="480" width="160" height="130" as="geometry">
            <mxRectangle x="1620" y="480" width="150" height="40" as="alternateBounds" />
          </mxGeometry>
        </mxCell>
        <mxCell id="PzYOAP8RvENbLpn77y3W-15" value="Póliza:" style="text;strokeColor=none;fillColor=none;align=left;verticalAlign=middle;spacingLeft=4;spacingRight=4;overflow=hidden;points=[[0,0.5],[1,0.5]];portConstraint=eastwest;rotatable=0;whiteSpace=wrap;html=1;" parent="PzYOAP8RvENbLpn77y3W-14" vertex="1">
          <mxGeometry y="40" width="160" height="30" as="geometry" />
        </mxCell>
        <mxCell id="PzYOAP8RvENbLpn77y3W-16" value="Boletín de Adhesión:" style="text;strokeColor=none;fillColor=none;align=left;verticalAlign=middle;spacingLeft=4;spacingRight=4;overflow=hidden;points=[[0,0.5],[1,0.5]];portConstraint=eastwest;rotatable=0;whiteSpace=wrap;html=1;" parent="PzYOAP8RvENbLpn77y3W-14" vertex="1">
          <mxGeometry y="70" width="160" height="30" as="geometry" />
        </mxCell>
        <mxCell id="PzYOAP8RvENbLpn77y3W-17" value="Fotocopia del DNI" style="text;strokeColor=none;fillColor=none;align=left;verticalAlign=middle;spacingLeft=4;spacingRight=4;overflow=hidden;points=[[0,0.5],[1,0.5]];portConstraint=eastwest;rotatable=0;whiteSpace=wrap;html=1;" parent="PzYOAP8RvENbLpn77y3W-14" vertex="1">
          <mxGeometry y="100" width="160" height="30" as="geometry" />
        </mxCell>
        <mxCell id="PzYOAP8RvENbLpn77y3W-69" style="edgeStyle=orthogonalEdgeStyle;rounded=0;orthogonalLoop=1;jettySize=auto;html=1;exitX=0.5;exitY=1;exitDx=0;exitDy=0;" parent="WIyWlLk6GJQsqaUBKTNV-1" source="PzYOAP8RvENbLpn77y3W-0" target="PzYOAP8RvENbLpn77y3W-7" edge="1">
          <mxGeometry relative="1" as="geometry">
            <Array as="points">
              <mxPoint x="1620" y="760" />
              <mxPoint x="1820" y="760" />
            </Array>
          </mxGeometry>
        </mxCell>
        <mxCell id="PzYOAP8RvENbLpn77y3W-0" value="Breve introducción sobre el seguro" style="rounded=0;whiteSpace=wrap;html=1;" parent="WIyWlLk6GJQsqaUBKTNV-1" vertex="1">
          <mxGeometry x="1520" y="480" width="200" height="40" as="geometry" />
        </mxCell>
        <mxCell id="PzYOAP8RvENbLpn77y3W-100" style="edgeStyle=orthogonalEdgeStyle;rounded=0;orthogonalLoop=1;jettySize=auto;html=1;exitX=0.5;exitY=1;exitDx=0;exitDy=0;entryX=0.5;entryY=0;entryDx=0;entryDy=0;" parent="WIyWlLk6GJQsqaUBKTNV-1" source="PzYOAP8RvENbLpn77y3W-82" target="PzYOAP8RvENbLpn77y3W-41" edge="1">
          <mxGeometry relative="1" as="geometry" />
        </mxCell>
        <mxCell id="PzYOAP8RvENbLpn77y3W-82" value="Proporcione su número de póliza y recibirá la información necesaria para llevara a cabo la renovación" style="rounded=0;whiteSpace=wrap;html=1;" parent="WIyWlLk6GJQsqaUBKTNV-1" vertex="1">
          <mxGeometry x="620" y="680" width="160" height="80" as="geometry" />
        </mxCell>
        <mxCell id="PzYOAP8RvENbLpn77y3W-89" style="edgeStyle=orthogonalEdgeStyle;rounded=0;orthogonalLoop=1;jettySize=auto;html=1;exitX=0.5;exitY=1;exitDx=0;exitDy=0;entryX=0.5;entryY=0;entryDx=0;entryDy=0;" parent="WIyWlLk6GJQsqaUBKTNV-1" source="PzYOAP8RvENbLpn77y3W-86" target="DYdr8LJS92hogZwub-4w-16" edge="1">
          <mxGeometry relative="1" as="geometry" />
        </mxCell>
        <mxCell id="PzYOAP8RvENbLpn77y3W-90" style="edgeStyle=orthogonalEdgeStyle;rounded=0;orthogonalLoop=1;jettySize=auto;html=1;exitX=0.5;exitY=1;exitDx=0;exitDy=0;entryX=0.5;entryY=0;entryDx=0;entryDy=0;" parent="WIyWlLk6GJQsqaUBKTNV-1" source="PzYOAP8RvENbLpn77y3W-86" target="DYdr8LJS92hogZwub-4w-26" edge="1">
          <mxGeometry relative="1" as="geometry" />
        </mxCell>
        <mxCell id="PzYOAP8RvENbLpn77y3W-96" style="edgeStyle=orthogonalEdgeStyle;rounded=0;orthogonalLoop=1;jettySize=auto;html=1;exitX=0.5;exitY=1;exitDx=0;exitDy=0;" parent="WIyWlLk6GJQsqaUBKTNV-1" source="PzYOAP8RvENbLpn77y3W-86" target="DYdr8LJS92hogZwub-4w-14" edge="1">
          <mxGeometry relative="1" as="geometry" />
        </mxCell>
        <mxCell id="PzYOAP8RvENbLpn77y3W-97" style="edgeStyle=orthogonalEdgeStyle;rounded=0;orthogonalLoop=1;jettySize=auto;html=1;exitX=0.5;exitY=1;exitDx=0;exitDy=0;" parent="WIyWlLk6GJQsqaUBKTNV-1" source="PzYOAP8RvENbLpn77y3W-86" target="DYdr8LJS92hogZwub-4w-15" edge="1">
          <mxGeometry relative="1" as="geometry" />
        </mxCell>
        <mxCell id="PzYOAP8RvENbLpn77y3W-86" value="Elija una opción:&lt;br&gt;1. Información general &amp;nbsp;2. Estado de los pagos &amp;nbsp;&lt;br&gt;3. Ampliaciones de coberturas &amp;nbsp;4. Dar de baja la póliza" style="rounded=0;whiteSpace=wrap;html=1;shadow=0;" parent="WIyWlLk6GJQsqaUBKTNV-1" vertex="1">
          <mxGeometry x="170" y="560" width="300" height="40" as="geometry" />
        </mxCell>
      </root>
    </mxGraphModel>
  </diagram>
</mxfile>
